<?xml version="1.0" encoding="UTF-8" standalone="no"?>
<!DOCTYPE svg PUBLIC "-//W3C//DTD SVG 1.1//EN"
 "http://www.w3.org/Graphics/SVG/1.1/DTD/svg11.dtd">
<!-- Generated by graphviz version 2.38.0 (20140413.2041)
 -->
<!-- Title: graphname Pages: 1 -->
<svg width="210pt" height="620pt"
 viewBox="0.00 0.00 210.19 620.00" xmlns="http://www.w3.org/2000/svg" xmlns:xlink="http://www.w3.org/1999/xlink">
<g id="graph0" class="graph" transform="scale(1 1) rotate(0) translate(4 616)">
<title>graphname</title>
<polygon fill="white" stroke="none" points="-4,4 -4,-616 206.191,-616 206.191,4 -4,4"/>
<!-- [2, 10] *12 -->
<g id="node1" class="node"><title>[2, 10] *12</title>
<ellipse fill="none" stroke="black" cx="94.5963" cy="-594" rx="50.0912" ry="18"/>
<text text-anchor="middle" x="94.5963" y="-590.3" font-family="Times,serif" font-size="14.00">[2, 10] *12</text>
</g>
<!-- [1, 4] *4 -->
<g id="node2" class="node"><title>[1, 4] *4</title>
<ellipse fill="none" stroke="black" cx="41.5963" cy="-522" rx="41.6928" ry="18"/>
<text text-anchor="middle" x="41.5963" y="-518.3" font-family="Times,serif" font-size="14.00">[1, 4] *4</text>
</g>
<!-- [2, 10] *12&#45;&gt;[1, 4] *4 -->
<g id="edge1" class="edge"><title>[2, 10] *12&#45;&gt;[1, 4] *4</title>
<path fill="none" stroke="black" d="M82.036,-576.411C75.5016,-567.781 67.3862,-557.062 60.1442,-547.497"/>
<polygon fill="black" stroke="black" points="62.8932,-545.33 54.0664,-539.47 57.3124,-549.555 62.8932,-545.33"/>
</g>
<!-- [3, 5] *12 -->
<g id="node3" class="node"><title>[3, 5] *12</title>
<ellipse fill="none" stroke="black" cx="147.596" cy="-522" rx="46.2923" ry="18"/>
<text text-anchor="middle" x="147.596" y="-518.3" font-family="Times,serif" font-size="14.00">[3, 5] *12</text>
</g>
<!-- [2, 10] *12&#45;&gt;[3, 5] *12 -->
<g id="edge2" class="edge"><title>[2, 10] *12&#45;&gt;[3, 5] *12</title>
<path fill="none" stroke="black" d="M107.157,-576.411C113.691,-567.781 121.806,-557.062 129.048,-547.497"/>
<polygon fill="black" stroke="black" points="131.88,-549.555 135.126,-539.47 126.299,-545.33 131.88,-549.555"/>
</g>
<!-- [3, 4] *12 -->
<g id="node4" class="node"><title>[3, 4] *12</title>
<ellipse fill="none" stroke="black" cx="147.596" cy="-450" rx="46.2923" ry="18"/>
<text text-anchor="middle" x="147.596" y="-446.3" font-family="Times,serif" font-size="14.00">[3, 4] *12</text>
</g>
<!-- [3, 5] *12&#45;&gt;[3, 4] *12 -->
<g id="edge3" class="edge"><title>[3, 5] *12&#45;&gt;[3, 4] *12</title>
<path fill="none" stroke="black" d="M147.596,-503.697C147.596,-495.983 147.596,-486.712 147.596,-478.112"/>
<polygon fill="black" stroke="black" points="151.096,-478.104 147.596,-468.104 144.096,-478.104 151.096,-478.104"/>
</g>
<!-- [3, 6] *12 -->
<g id="node5" class="node"><title>[3, 6] *12</title>
<ellipse fill="none" stroke="black" cx="147.596" cy="-378" rx="46.2923" ry="18"/>
<text text-anchor="middle" x="147.596" y="-374.3" font-family="Times,serif" font-size="14.00">[3, 6] *12</text>
</g>
<!-- [3, 4] *12&#45;&gt;[3, 6] *12 -->
<g id="edge4" class="edge"><title>[3, 4] *12&#45;&gt;[3, 6] *12</title>
<path fill="none" stroke="black" d="M147.596,-431.697C147.596,-423.983 147.596,-414.712 147.596,-406.112"/>
<polygon fill="black" stroke="black" points="151.096,-406.104 147.596,-396.104 144.096,-406.104 151.096,-406.104"/>
</g>
<!-- [4, 6] *12 -->
<g id="node6" class="node"><title>[4, 6] *12</title>
<ellipse fill="none" stroke="black" cx="147.596" cy="-306" rx="46.2923" ry="18"/>
<text text-anchor="middle" x="147.596" y="-302.3" font-family="Times,serif" font-size="14.00">[4, 6] *12</text>
</g>
<!-- [3, 6] *12&#45;&gt;[4, 6] *12 -->
<g id="edge5" class="edge"><title>[3, 6] *12&#45;&gt;[4, 6] *12</title>
<path fill="none" stroke="black" d="M147.596,-359.697C147.596,-351.983 147.596,-342.712 147.596,-334.112"/>
<polygon fill="black" stroke="black" points="151.096,-334.104 147.596,-324.104 144.096,-334.104 151.096,-334.104"/>
</g>
<!-- [6, 8] *12 -->
<g id="node7" class="node"><title>[6, 8] *12</title>
<ellipse fill="none" stroke="black" cx="147.596" cy="-234" rx="46.2923" ry="18"/>
<text text-anchor="middle" x="147.596" y="-230.3" font-family="Times,serif" font-size="14.00">[6, 8] *12</text>
</g>
<!-- [4, 6] *12&#45;&gt;[6, 8] *12 -->
<g id="edge6" class="edge"><title>[4, 6] *12&#45;&gt;[6, 8] *12</title>
<path fill="none" stroke="black" d="M147.596,-287.697C147.596,-279.983 147.596,-270.712 147.596,-262.112"/>
<polygon fill="black" stroke="black" points="151.096,-262.104 147.596,-252.104 144.096,-262.104 151.096,-262.104"/>
</g>
<!-- [8, 10] *12 -->
<g id="node8" class="node"><title>[8, 10] *12</title>
<ellipse fill="none" stroke="black" cx="147.596" cy="-162" rx="50.0912" ry="18"/>
<text text-anchor="middle" x="147.596" y="-158.3" font-family="Times,serif" font-size="14.00">[8, 10] *12</text>
</g>
<!-- [6, 8] *12&#45;&gt;[8, 10] *12 -->
<g id="edge7" class="edge"><title>[6, 8] *12&#45;&gt;[8, 10] *12</title>
<path fill="none" stroke="black" d="M147.596,-215.697C147.596,-207.983 147.596,-198.712 147.596,-190.112"/>
<polygon fill="black" stroke="black" points="151.096,-190.104 147.596,-180.104 144.096,-190.104 151.096,-190.104"/>
</g>
<!-- [8, 9] *12 -->
<g id="node9" class="node"><title>[8, 9] *12</title>
<ellipse fill="none" stroke="black" cx="147.596" cy="-90" rx="46.2923" ry="18"/>
<text text-anchor="middle" x="147.596" y="-86.3" font-family="Times,serif" font-size="14.00">[8, 9] *12</text>
</g>
<!-- [8, 10] *12&#45;&gt;[8, 9] *12 -->
<g id="edge8" class="edge"><title>[8, 10] *12&#45;&gt;[8, 9] *12</title>
<path fill="none" stroke="black" d="M147.596,-143.697C147.596,-135.983 147.596,-126.712 147.596,-118.112"/>
<polygon fill="black" stroke="black" points="151.096,-118.104 147.596,-108.104 144.096,-118.104 151.096,-118.104"/>
</g>
<!-- [11, 12] *12 -->
<g id="node10" class="node"><title>[11, 12] *12</title>
<ellipse fill="none" stroke="black" cx="147.596" cy="-18" rx="54.6905" ry="18"/>
<text text-anchor="middle" x="147.596" y="-14.3" font-family="Times,serif" font-size="14.00">[11, 12] *12</text>
</g>
<!-- [8, 9] *12&#45;&gt;[11, 12] *12 -->
<g id="edge9" class="edge"><title>[8, 9] *12&#45;&gt;[11, 12] *12</title>
<path fill="none" stroke="black" d="M147.596,-71.6966C147.596,-63.9827 147.596,-54.7125 147.596,-46.1124"/>
<polygon fill="black" stroke="black" points="151.096,-46.1043 147.596,-36.1043 144.096,-46.1044 151.096,-46.1043"/>
</g>
</g>
</svg>
